<svg version="1.1" id="Layer_1" xmlns="http://www.w3.org/2000/svg" xmlns:xlink="http://www.w3.org/1999/xlink" x="0px" y="0px"
	 width="100%" viewBox="230 55 560 545" enable-background="new 0 0 1024 672" xml:space="preserve">
<defs>
  <clipPath id="straight-bottom">
    <rect x="0" y="0" width="1024" height="600"/>
  </clipPath>
</defs>
<g clip-path="url(#straight-bottom)">
<path fill="#000000" opacity="1.000000" stroke="none"
	d="
M581.070312,99.014732
	C585.378784,104.818779 586.991333,111.286377 588.293335,117.835587
	C588.860901,120.690033 590.060608,122.265274 593.040466,123.382103
	C600.644714,126.232063 605.929749,132.227859 610.509094,138.602264
	C622.999023,155.987976 628.747192,175.719635 630.368042,196.903214
	C631.456299,211.126541 630.248108,225.154526 627.821655,239.122528
	C627.418335,241.444061 627.847229,242.492493 630.189392,243.004929
	C640.012329,245.154083 643.485107,252.545731 644.159485,261.383057
	C645.315674,276.533752 641.148865,290.383087 632.343811,302.781891
	C627.285889,309.904053 620.575256,314.629944 611.754517,315.509979
	C607.382629,315.946167 605.591919,318.042786 604.460632,322.089355
	C601.680359,332.034271 597.990784,341.690430 593.972168,351.207092
	C591.573547,356.887665 591.551636,362.967133 591.449280,368.889252
	C591.155823,385.878967 591.181763,402.879669 591.450928,419.870209
	C591.529236,424.807617 592.543884,429.796814 593.678711,434.633362
	C594.988342,440.215149 599.432922,442.806610 604.487183,444.762543
	C639.738220,458.403870 674.968750,472.098572 710.173523,485.858856
	C719.013855,489.314240 727.664124,493.260010 736.528442,496.648956
	C754.537354,503.533997 766.575989,516.578674 774.836609,533.469238
	C783.048889,550.260986 787.211487,568.200806 789.074463,586.713989
	C789.667053,592.603271 788.486450,594.134216 782.673279,595.297852
	C756.547302,600.527649 730.148926,603.855591 703.640930,606.317383
	C663.192505,610.073853 622.681824,612.547424 582.049255,613.600037
	C537.394958,614.756836 492.753326,614.475403 448.111633,613.974426
	C425.816101,613.724182 403.511078,612.522217 381.254303,611.075134
	C353.537231,609.273132 325.860413,606.917175 298.262970,603.586182
	C280.421783,601.432739 262.680328,598.665161 244.889725,596.205078
	C240.673965,595.622131 237.092026,594.902283 237.692749,589.076233
	C240.019653,566.508362 244.834641,544.719543 256.808319,525.063477
	C265.174957,511.328735 277.080780,501.913361 292.026611,496.065552
	C330.952911,480.835114 369.821014,465.455933 408.734528,450.192688
	C412.446869,448.736511 416.308167,447.656097 420.112335,446.438782
	C431.911926,442.663147 434.613922,439.338165 435.622986,426.857391
	C437.478882,403.903137 437.106537,380.941162 435.629150,357.985504
	C435.535645,356.532990 435.095123,355.033356 434.503876,353.693390
	C429.926605,343.320068 425.914917,332.731384 422.880585,321.813293
	C421.810120,317.961456 420.026581,315.829193 415.883026,315.473145
	C405.236664,314.558380 398.082214,308.216736 393.278351,299.341858
	C386.757324,287.294617 383.494385,274.255951 383.728882,260.480042
	C383.888336,251.111801 387.961060,245.852859 397.060760,243.796249
	C400.915955,242.924927 400.697968,240.932999 400.170166,237.965103
	C395.585114,212.181793 395.472626,186.642715 404.831940,161.710922
	C406.169525,158.147766 407.793976,154.692322 409.246552,151.278900
	C403.791321,146.359589 403.816620,145.746506 409.681152,141.372192
	C412.055237,139.601395 414.507324,137.935165 417.213715,136.015823
	C415.097595,133.539993 412.576904,131.800049 411.169006,129.136154
	C410.137054,127.183586 408.982147,125.102806 410.191406,123.015137
	C411.456421,120.831261 413.741119,121.946800 415.658783,122.053917
	C416.451233,122.098190 417.248199,122.061249 418.374817,122.061249
	C417.795654,118.134148 417.111908,114.438385 416.752045,110.711349
	C416.529480,108.406212 416.555115,106.015106 416.913757,103.732399
	C417.312714,101.192780 417.230042,97.840294 420.356995,97.089218
	C424.007996,96.212273 424.164703,100.015366 425.535370,102.067383
	C426.985321,104.238045 427.910950,106.863167 431.179901,107.992790
	C431.612335,103.805374 431.019501,99.692215 432.192169,95.774017
	C433.672913,90.826294 434.885132,90.361511 439.104767,93.274376
	C440.843994,94.474976 442.356506,96.134247 445.074432,96.163185
	C444.812500,92.128937 444.832184,88.189972 445.775818,84.332649
	C446.172516,82.711121 446.416534,80.811920 448.343048,80.416161
	C450.019592,80.071754 451.000275,81.529427 451.909241,82.726784
	C454.310608,85.890083 456.846252,88.872635 461.535461,90.545334
	C460.026337,85.991661 458.465271,81.991409 461.882782,78.053528
	C468.776581,80.910141 475.611237,83.974358 483.588470,83.548851
	C483.939087,80.187553 481.303986,76.935318 484.103546,73.225555
	C493.943573,80.054955 505.338074,82.159332 517.029480,83.401894
	C517.910828,80.453087 514.775269,78.727882 516.530334,75.408592
	C534.668091,81.075752 552.870422,86.817642 567.759827,99.974960
	C567.296021,95.822708 566.115845,94.318680 561.894958,91.062836
	C559.141235,88.938705 555.038452,88.398430 553.026917,82.986549
	C564.566406,85.923409 573.695068,90.468323 581.070312,99.014732
M530.947388,270.386475
	C527.441956,264.251007 524.795898,257.722595 523.969055,250.730682
	C523.432678,246.194611 520.879883,244.751251 517.101501,244.373016
	C514.628052,244.125427 512.106750,244.198013 509.615814,244.316223
	C504.982452,244.536133 502.883789,246.722839 503.132935,251.685669
	C503.743256,263.842438 503.552704,275.981598 501.195984,288.016541
	C499.468475,296.838531 506.235138,303.289093 515.039795,301.399078
	C518.130737,300.735596 521.151123,299.742096 524.243713,299.088135
	C526.289246,298.655548 528.401184,298.887817 529.403931,301.064514
	C530.446655,303.328003 529.001343,304.931458 527.321411,306.131592
	C523.352295,308.967041 519.009094,311.161957 514.203979,312.054230
	C499.978851,314.695648 488.666443,302.291138 492.735565,288.659485
	C494.480072,282.815338 496.141541,276.949921 496.529572,272.260223
	C495.014740,273.401215 492.713440,275.011627 490.547211,276.786865
	C478.685730,286.507233 465.151337,286.398834 451.184326,283.454529
	C439.527405,280.997223 432.114502,273.869141 428.576416,262.525421
	C426.875824,257.073090 426.491241,251.423828 425.618927,245.841537
	C425.144714,242.806946 423.701782,240.169601 420.123474,240.823257
	C416.783325,241.433411 414.045227,242.586288 414.537598,247.390213
	C416.271667,264.309418 419.921082,280.853027 423.242523,297.489319
	C430.913818,335.912811 449.536102,367.859711 478.128723,394.509155
	C497.823944,412.865875 528.231140,411.867401 545.626343,397.395538
	C563.581909,382.457397 578.760010,364.768677 588.562378,343.426178
	C602.727051,312.585876 609.437683,279.658020 613.202087,246.078308
	C613.361023,244.660736 613.422913,243.359528 611.958984,242.629807
	C606.857666,240.087006 601.894592,238.566559 601.020752,247.087952
	C600.799988,249.240952 600.482483,251.383926 600.219543,253.532730
	C597.854675,272.859772 589.091736,282.280762 570.488037,284.913696
	C565.910095,285.561554 561.134888,285.559204 556.526550,285.096710
	C546.188110,284.059113 537.115295,280.379730 530.947388,270.386475
M442.604187,437.731079
	C439.727325,448.368469 431.309875,452.470490 421.786530,454.885040
	C417.366821,456.005646 416.654083,458.345673 417.694458,462.174530
	C421.362457,475.673462 428.849396,486.576233 439.896027,495.096588
	C456.502350,507.905060 475.677521,514.083740 496.204926,516.152161
	C521.726196,518.723633 546.792603,516.788147 570.450562,505.806641
	C588.793091,497.292450 603.288269,484.956268 609.452820,464.774109
	C611.958008,456.572571 611.805603,456.240814 603.515747,453.572937
	C589.975037,449.215210 585.260925,442.872620 583.533020,428.740479
	C581.524719,412.315643 581.775879,395.859741 581.690674,379.390503
	C581.682129,377.737518 582.191040,375.902222 580.808105,374.019135
	C572.872559,383.487915 565.316528,392.749695 556.280029,400.703735
	C530.792603,423.138123 499.381042,423.868408 473.192902,402.321808
	C466.230743,396.593597 460.113708,390.003296 454.245636,383.164764
	C451.935516,380.472534 450.078217,377.301208 446.269135,374.622986
	C446.058197,395.997559 446.577240,416.611115 442.604187,437.731079
M418.115173,216.553818
	C416.265045,222.187164 414.553070,227.845734 415.037079,234.399185
	C420.801208,229.229645 430.137146,231.307663 434.521729,223.531570
	C435.791565,221.279480 438.717224,220.370865 441.317169,219.588058
	C452.737274,216.149673 464.332550,216.351288 475.923340,218.229263
	C483.936035,219.527496 491.583649,221.566132 495.465240,230.123825
	C496.644470,232.723663 499.832306,233.969254 502.714844,233.810959
	C509.692078,233.427872 516.626770,233.235184 523.622314,233.712784
	C526.522339,233.910782 529.603699,232.589050 530.840027,229.325790
	C532.888550,223.918671 537.377686,221.552322 542.399414,219.872101
	C547.485779,218.170242 552.834229,217.240036 558.102600,217.197235
	C571.326111,217.089722 585.538208,214.181305 594.942383,227.715149
	C595.205261,228.093430 595.726074,228.449860 596.172791,228.519180
	C602.088074,229.437103 607.429199,232.090988 613.283997,234.825302
	C613.383606,228.987350 612.503479,224.016006 610.468750,219.554230
	C606.956421,211.852264 606.509705,204.002472 606.957703,195.720367
	C607.682617,182.317215 606.462341,169.105011 600.728149,156.635742
	C595.138672,144.481308 585.560120,137.571030 572.727661,134.791199
	C571.443970,134.513123 569.469116,133.938980 568.870361,134.544983
	C564.608154,138.859039 560.196533,135.401718 555.904602,135.036865
	C553.402527,134.824158 550.950439,134.474075 548.468079,135.073410
	C536.341797,138.001160 524.248657,141.077682 512.077148,143.803787
	C497.067627,147.165543 482.214661,147.376907 468.589844,138.953094
	C464.556580,136.459473 460.561310,135.937256 456.225922,136.377914
	C442.317749,137.791489 431.640411,143.349899 426.567505,157.632935
	C421.969849,170.577942 419.891876,183.745468 420.711792,197.327927
	C421.098358,203.731064 421.559082,209.937820 418.115173,216.553818
M569.030212,229.603073
	C560.652954,229.176834 552.398743,230.073471 544.406921,232.556946
	C535.432190,235.345871 530.348267,242.106171 531.474060,250.293121
	C532.939270,260.948120 535.958740,271.288269 546.889343,276.013885
	C559.148254,281.313751 571.843628,281.281281 583.099609,273.604095
	C592.623352,267.108398 593.466370,256.223602 593.432495,245.798843
	C593.408081,238.284088 589.458679,234.097595 582.204346,231.663162
	C578.198853,230.319000 574.012939,230.371002 569.030212,229.603073
M442.276978,232.637360
	C437.584137,234.463852 434.096741,237.788437 433.556061,242.727386
	C431.964661,257.263245 435.726532,275.254913 457.278107,278.531616
	C477.798004,281.651489 490.710663,273.304596 494.390045,253.568710
	C496.357483,243.015732 492.430939,235.787994 482.257843,232.668350
	C469.274078,228.686813 456.115875,228.378311 442.276978,232.637360
M628.006531,295.461823
	C630.222778,292.299469 631.852844,288.815247 633.123657,285.209412
	C636.312317,276.161652 638.411011,266.912354 635.678955,257.365509
	C634.141296,251.992447 630.172363,250.493958 625.156372,252.916794
	C623.032043,253.942902 621.169800,255.378601 619.677856,257.190735
	C617.723267,259.564819 617.672852,261.102020 621.339294,261.908325
	C627.438049,263.249542 629.600891,265.915161 630.209595,272.270630
	C630.907959,279.561676 627.559204,285.477295 623.373840,291.032318
	C622.633484,292.014832 621.587524,292.711884 620.344971,292.141876
	C618.749268,291.409790 619.162292,290.015564 619.467346,288.678223
	C620.094910,285.926392 620.874695,283.185455 621.199585,280.394409
	C621.611694,276.854004 621.218201,273.464691 617.383728,271.686554
	C615.826782,272.822235 615.769104,274.417877 615.466248,275.815552
	C613.599548,284.428925 611.833069,293.063995 609.996460,301.684021
	C608.976990,306.469116 610.288147,307.725250 615.131775,306.308472
	C620.719543,304.674042 624.445435,300.693756 628.006531,295.461823
M403.058350,289.218384
	C401.001099,285.960693 399.348206,282.545044 398.499786,278.742676
	C396.332703,269.030701 399.361206,263.819550 408.728912,261.270416
	C408.982941,261.201324 409.142700,260.785950 409.337646,260.524994
	C408.066589,255.772324 402.342438,251.166824 398.215027,251.576019
	C394.644135,251.930069 391.841064,255.947601 391.355743,261.474945
	C390.959198,265.991455 391.467987,270.459106 392.366394,274.869537
	C394.175629,283.751648 396.800079,292.358551 402.685211,299.492767
	C406.618225,304.260559 411.523010,307.253143 418.654236,306.571747
	C416.007538,294.306549 413.508698,282.726562 410.893005,270.605225
	C403.085175,277.136963 409.685883,285.408203 407.717834,292.016205
	C405.130402,292.391602 404.433746,290.904266 403.058350,289.218384
z"/>
<path fill="#000000" opacity="1.000000" stroke="none"
	d="
M480.372253,327.436798
	C502.128204,335.109222 523.457825,335.091156 544.724670,327.107971
	C546.751343,326.347198 549.075806,324.992249 550.415222,327.669678
	C551.796021,330.429749 549.234375,331.587341 547.345154,332.418427
	C524.692200,342.383057 501.929688,342.831055 479.118622,332.926422
	C477.406616,332.183075 475.621979,331.138519 476.050049,328.919678
	C476.471100,326.737274 478.225494,326.745056 480.372253,327.436798
z"/>
<path fill="#000000" opacity="1.000000" stroke="none"
	d="
M572.179077,246.484924
	C570.195557,246.142929 570.115051,247.290009 569.760010,248.484406
	C568.084473,254.122711 564.329834,257.157928 559.533752,256.928833
	C554.565002,256.691498 551.780884,254.069077 550.215454,248.160187
	C550.088074,247.679245 549.925049,247.207748 549.765503,246.689407
	C548.410095,245.405945 546.445251,247.288986 544.840210,245.515106
	C544.088806,242.294556 546.939941,241.165817 549.130920,240.095505
	C557.871094,235.825928 566.582642,236.720230 575.011536,241.064407
	C577.096741,242.139175 580.321350,243.523056 578.983826,246.483841
	C577.437012,249.908020 574.714111,246.943726 572.179077,246.484924
z"/>
<path fill="#000000" opacity="1.000000" stroke="none"
	d="
M450.742859,247.940369
	C447.099121,247.372849 446.969604,245.224518 448.798309,243.362152
	C455.130005,236.913971 472.373871,233.530396 480.579590,242.724335
	C480.882446,243.063675 480.931244,243.629791 481.238586,244.476151
	C478.489136,245.366898 477.223663,247.258942 476.606567,250.206863
	C475.673157,254.665924 472.027222,256.764343 467.731110,256.849945
	C463.258820,256.939026 459.696289,254.904480 458.060211,250.405396
	C457.617981,249.189316 457.352325,247.909012 457.042023,246.789429
	C454.635345,245.793823 453.011230,247.460175 450.742859,247.940369
z"/>
</g>
</svg>
