<svg version="1.1" id="Layer_1" xmlns="http://www.w3.org/2000/svg" xmlns:xlink="http://www.w3.org/1999/xlink" x="0px" y="0px"
	 width="100%" viewBox="225 55 580 545" enable-background="new 0 0 1024 672" xml:space="preserve">
<defs>
  <clipPath id="straight-bottom">
    <rect x="0" y="0" width="1024" height="600"/>
  </clipPath>
</defs>
<g clip-path="url(#straight-bottom)">
<path fill="#000000" opacity="1.000000" stroke="none" 
	d="
M433.820068,382.958923 
	C433.585175,377.481110 432.686005,372.639191 430.666870,367.970123 
	C426.297821,357.867096 422.889587,347.409088 419.817139,336.853363 
	C418.921265,333.775452 417.672974,332.169525 414.134552,331.920258 
	C403.083191,331.141693 395.060242,325.214355 389.861511,315.734253 
	C381.900726,301.217438 378.493713,285.542175 379.822540,269.026611 
	C380.382324,262.068787 383.742462,256.360443 391.006226,254.682205 
	C395.789856,253.576981 396.060516,251.043610 395.469482,247.105499 
	C393.913300,236.736755 392.774872,226.304886 392.871735,215.805893 
	C393.075043,193.767792 396.355408,172.366333 406.596558,152.485580 
	C407.041809,151.621201 407.272491,150.646317 407.585907,149.771088 
	C401.617676,145.649643 401.467041,144.288422 406.949951,139.467987 
	C409.917572,136.858948 413.245636,134.659943 416.387848,132.293457 
	C415.929749,129.464157 413.772491,127.853050 412.682312,125.644753 
	C411.356232,122.958565 409.412048,120.236183 411.016022,117.203133 
	C412.549225,114.303825 415.618317,116.731728 418.190735,115.858757 
	C417.602966,109.454407 417.195374,103.003159 418.720398,96.652893 
	C419.302002,94.231125 419.941498,91.811638 420.756073,89.460915 
	C421.474091,87.388855 422.448029,85.176460 425.178894,85.498306 
	C427.655945,85.790245 427.902191,88.099335 428.419220,90.008881 
	C429.565277,94.241585 430.429993,98.610146 434.898010,102.954720 
	C433.890594,97.103683 433.756348,92.715561 434.850586,88.338493 
	C436.687347,80.991119 439.352875,80.067551 444.797333,85.073212 
	C445.652100,85.859123 446.394348,86.794571 448.060028,86.986572 
	C448.661224,83.175224 449.036652,79.286011 449.955261,75.529617 
	C450.518036,73.228157 450.931732,70.083649 453.852448,69.657990 
	C456.952301,69.206207 457.607666,72.404175 458.904938,74.422966 
	C459.758270,75.750923 459.919312,77.653259 462.312103,78.042885 
	C463.008331,74.895172 461.235962,70.730499 464.372009,68.800873 
	C467.494934,66.879311 469.907257,70.837143 472.964111,71.340317 
	C477.484528,72.084419 481.786133,74.269539 486.652344,73.486084 
	C487.387329,70.057961 484.819183,66.354530 488.220886,63.148514 
	C498.254791,69.185432 509.146942,72.578804 520.990112,73.098534 
	C521.102905,70.333069 518.147583,68.689400 520.184265,65.162575 
	C539.028931,70.983856 558.594482,75.404839 574.081116,90.850937 
	C572.453064,81.104553 562.382629,80.388725 558.124451,74.287338 
	C559.671875,72.042473 561.316223,72.881096 562.829712,73.354279 
	C570.045715,75.610359 576.848022,78.797287 582.773193,83.495430 
	C591.906372,90.737106 596.086243,100.372093 595.311829,111.998398 
	C595.040527,116.071815 595.972595,118.438972 600.160889,120.407288 
	C606.911438,123.579811 611.524658,129.634552 615.602295,135.743362 
	C627.642700,153.781464 634.778442,173.649658 637.299500,195.219986 
	C638.400879,204.643646 639.313599,214.072662 639.838013,223.542419 
	C640.291687,231.734726 639.758789,239.881790 637.880127,247.850464 
	C637.054382,251.352859 637.271545,253.243546 641.164978,254.515701 
	C647.911072,256.719910 651.272583,262.036316 651.625427,268.933990 
	C652.592651,287.847046 649.322205,305.765747 637.672241,321.280853 
	C632.620911,328.008118 625.471191,331.473572 617.063660,332.087433 
	C614.906677,332.244965 613.080811,332.523346 612.437744,334.953918 
	C609.331238,346.695465 604.312134,357.895477 602.165710,369.885376 
	C601.057129,376.077728 600.431213,382.436859 600.394348,388.725342 
	C600.290833,406.372040 599.475586,424.026306 601.195984,441.668457 
	C601.964111,449.545410 605.438782,454.079590 612.985291,457.065491 
	C659.586731,475.504089 706.895508,492.112915 753.156616,511.431396 
	C768.909729,518.009827 777.377686,531.200500 785.179260,545.135681 
	C793.876709,560.671021 798.208801,577.472595 799.347229,595.165649 
	C799.411072,596.158936 799.459351,597.184204 799.740662,598.127197 
	C801.032715,602.457947 798.975403,604.210144 794.965271,604.933716 
	C771.386536,609.188232 747.718140,612.731506 723.905457,615.493469 
	C699.261658,618.351746 674.543518,620.175537 649.824158,622.016479 
	C635.551453,623.079468 621.232727,623.601807 606.925659,624.111816 
	C555.617188,625.940674 504.282013,625.886780 452.971375,624.885925 
	C420.706207,624.256470 388.471130,622.173828 356.269501,619.571228 
	C321.091339,616.727966 286.112152,612.457886 251.198685,607.465271 
	C245.272934,606.617920 239.328064,605.904785 233.393112,605.121338 
	C225.894913,604.131531 224.612869,602.508484 225.904770,595.019287 
	C227.918808,583.344055 231.395325,572.086060 235.373184,560.925964 
	C244.061478,536.550720 260.655029,520.963867 284.850555,511.592407 
	C321.190613,497.517120 357.496460,483.355865 393.970978,469.628082 
	C404.070251,465.827057 413.289978,459.999420 423.897919,457.248932 
	C431.379517,455.309052 434.343842,448.843658 434.443634,441.849640 
	C434.721527,422.373138 435.558624,402.873383 433.820068,382.958923 
M607.948364,318.634247 
	C610.806763,308.363617 612.753296,297.888702 614.447571,287.389160 
	C616.274841,276.064850 618.159668,264.708527 617.739441,253.153687 
	C617.628052,250.090134 613.091675,244.852020 610.212585,245.025330 
	C605.885254,245.285843 606.243835,249.214310 605.420349,252.117752 
	C605.331360,252.431366 605.341675,252.780670 605.347961,253.112610 
	C605.447388,258.325897 604.357788,263.394409 603.201233,268.411163 
	C600.764099,278.983734 595.046265,286.846039 584.350708,290.491730 
	C575.478333,293.515961 566.381897,293.844177 557.217957,292.837616 
	C544.041382,291.390228 534.634888,284.486389 529.101013,272.442505 
	C526.801697,267.438293 525.084045,262.258026 524.569214,256.688599 
	C523.999146,250.522705 522.556396,249.291428 516.404541,248.995163 
	C514.910156,248.923187 513.401550,248.943085 511.909851,249.056656 
	C506.208344,249.490768 504.780090,250.721649 505.054321,256.533081 
	C505.726562,270.780640 503.638489,284.746002 501.465576,298.736237 
	C499.978485,308.310760 506.929474,314.517761 516.385010,312.173981 
	C519.775330,311.333618 523.063965,310.089722 526.440186,309.183289 
	C528.499207,308.630432 530.990967,307.803986 532.168152,310.394348 
	C533.253967,312.783630 531.443298,314.480865 529.715942,315.861481 
	C525.214844,319.459045 520.088806,321.929321 514.483643,323.055267 
	C502.175842,325.527710 490.757019,314.614777 492.792755,302.343323 
	C494.115112,294.372437 496.713562,286.626892 497.319824,277.385376 
	C492.640076,283.983856 487.519470,288.494141 480.635986,290.824799 
	C472.879913,293.450867 464.910614,293.803253 456.926239,293.102844 
	C437.204834,291.372864 427.317017,281.690308 424.628571,261.994598 
	C424.043793,257.710419 423.521881,253.409485 422.706268,249.167160 
	C421.810211,244.506332 419.573151,243.901871 415.697388,246.665527 
	C413.218323,248.433243 413.183807,250.772217 413.263916,253.300552 
	C413.861908,272.173187 417.871704,290.542267 421.302307,309.014954 
	C429.046722,350.715942 447.787689,386.272125 477.955505,416.364044 
	C499.875183,438.228607 535.569641,433.551910 552.317383,417.432983 
	C580.569214,390.241821 599.951538,358.146057 607.948364,318.634247 
M604.790527,230.522369 
	C610.279968,230.492096 612.643311,236.069168 617.535034,238.226974 
	C618.024597,228.395508 616.164856,219.661758 613.306030,211.106323 
	C612.344177,208.227951 611.502197,205.420578 611.978210,202.335068 
	C613.572571,192.001587 612.739929,181.755646 610.640015,171.586884 
	C606.827881,153.126602 597.266296,139.861725 577.800659,135.764038 
	C575.114563,135.198578 572.022339,133.936539 569.755737,136.267563 
	C568.031250,138.041031 566.477905,137.603912 564.811707,136.978104 
	C557.048706,134.062347 549.472595,135.149200 541.835388,137.598633 
	C530.743713,141.155991 519.535950,144.305603 508.171906,146.916168 
	C494.651245,150.022171 481.885315,148.281204 470.419067,140.503418 
	C465.684692,137.291992 460.933960,136.694397 455.780182,137.456757 
	C450.347504,138.260361 445.092651,139.790359 440.117462,142.316223 
	C435.663269,144.577576 432.281006,147.608932 429.824402,152.054749 
	C422.264740,165.735519 419.613647,180.465317 420.111664,195.854141 
	C420.349915,203.214661 420.275604,210.330063 417.493530,217.405884 
	C415.185852,223.275192 413.889252,229.569138 414.032959,237.049271 
	C420.212250,229.577164 430.711456,230.408508 435.498779,222.269547 
	C436.263367,220.969727 438.599152,220.320557 440.336121,219.909180 
	C455.399567,216.341461 470.418030,217.013031 485.230652,221.180862 
	C490.336456,222.617508 494.341431,225.702026 495.961243,231.361725 
	C497.205139,235.708069 501.090820,237.510651 505.165985,237.765930 
	C511.301636,238.150284 517.498718,238.114960 523.635193,237.720810 
	C527.532898,237.470444 531.269653,235.755417 532.629578,231.683273 
	C535.059631,224.407150 540.720764,221.420044 547.474060,219.819305 
	C558.112976,217.297501 568.954773,217.227463 579.770325,217.936127 
	C586.315186,218.364960 592.898621,219.606720 596.847473,225.706940 
	C598.659973,228.506973 600.879333,229.961807 604.790527,230.522369 
M425.351227,486.125580 
	C431.212189,498.188904 440.330780,507.193451 451.647675,514.134827 
	C468.305115,524.351929 486.508850,529.558105 505.897339,531.125427 
	C532.906677,533.308838 558.728943,529.434998 582.541321,515.908508 
	C597.001587,507.694427 608.385132,496.479401 613.483459,480.139282 
	C616.628601,470.059357 616.216431,469.019653 606.264954,465.600159 
	C598.934753,463.081299 595.096313,458.298340 593.559692,451.047852 
	C592.040649,443.880951 590.863281,436.689575 590.637207,429.341980 
	C590.354248,420.145844 589.882751,410.955505 589.445618,400.654724 
	C587.276001,404.563171 585.699097,407.467773 584.063843,410.339142 
	C574.983887,426.283508 564.389282,441.040771 548.280823,450.566528 
	C526.132935,463.663757 503.316284,465.099457 480.457764,452.267914 
	C467.435760,444.958038 457.527008,434.188049 448.830719,422.215515 
	C447.827759,420.834656 447.387451,418.827209 445.283142,418.329651 
	C443.868073,420.160583 444.397736,422.240448 444.376892,424.165527 
	C444.284790,432.681000 443.118347,441.040680 441.487793,449.393951 
	C439.836609,457.852722 436.328430,464.116760 427.278625,466.719757 
	C421.138489,468.485840 420.657928,470.261292 422.194275,476.421478 
	C422.955444,479.473511 424.081940,482.434418 425.351227,486.125580 
M597.185974,259.675934 
	C598.007263,256.059448 597.914795,252.373077 597.553833,248.753036 
	C596.906616,242.262207 593.635132,237.253723 587.321167,235.269638 
	C571.958374,230.442047 556.796082,231.577133 542.192993,238.276535 
	C536.059143,241.090515 533.248596,246.311478 533.171265,253.144836 
	C532.954590,272.280029 543.073120,285.083557 562.000488,286.196808 
	C582.984314,287.430939 594.020569,281.308533 597.185974,259.675934 
M469.333099,233.270432 
	C462.879181,232.040329 456.444611,232.512527 449.986847,233.342926 
	C438.823395,234.778458 432.888062,238.866608 431.846649,248.000854 
	C429.926483,264.842468 434.805389,284.062531 457.940430,286.389160 
	C478.059570,288.412506 491.174255,280.281708 495.302948,260.724213 
	C497.983978,248.024216 493.562897,240.105270 481.383484,235.813446 
	C477.762177,234.537354 474.022949,233.774384 469.333099,233.270432 
M643.603271,270.116180 
	C641.289246,263.919220 638.874817,261.981476 634.622131,262.908264 
	C629.413757,264.043335 625.188965,268.738495 625.343445,273.618622 
	C631.908752,273.146698 635.648926,276.673950 636.839417,282.833801 
	C638.496216,291.406067 635.577087,298.863922 630.513855,305.638580 
	C629.805359,306.586548 628.823181,307.395386 627.527283,306.741211 
	C626.313293,306.128326 626.137024,304.951965 626.373535,303.727905 
	C627.003418,300.467804 627.928894,297.239380 628.246887,293.950928 
	C628.650757,289.774841 627.957275,285.819794 623.552063,282.953827 
	C620.919312,296.344666 618.383301,309.243591 615.778870,322.490662 
	C624.146851,323.692993 629.649231,319.772186 633.656433,314.020172 
	C642.673584,301.076691 645.254211,286.426514 643.603271,270.116180 
M399.805420,263.699463 
	C393.261597,261.577271 389.193634,263.858612 388.581482,271.249146 
	C387.267914,287.106659 390.402252,302.097015 399.579102,315.401825 
	C402.200928,319.203064 406.014252,321.712830 410.629242,322.613861 
	C415.025208,323.472168 415.994324,322.370697 415.085846,317.928467 
	C413.186096,308.639099 411.382141,299.327942 409.293579,290.081146 
	C408.852814,288.129730 409.402466,285.662659 407.257446,284.169159 
	C405.011322,285.075684 404.798035,287.128967 404.227814,289.014191 
	C402.790314,293.766724 404.850555,298.201599 405.370148,302.775635 
	C405.537384,304.247925 406.035156,305.988373 404.257874,306.732300 
	C402.522980,307.458405 401.432678,306.011749 400.597748,304.815979 
	C396.260651,298.604340 393.751648,291.773254 395.009430,284.133331 
	C395.783112,279.434235 397.466156,275.095276 403.017609,273.789856 
	C407.229218,272.799530 407.841125,270.507751 404.788727,267.375275 
	C403.528046,266.081512 401.905792,265.140167 399.805420,263.699463 
z"/>
<path fill="#000000" opacity="1.000000" stroke="none" 
	d="
M510.998413,343.805176 
	C523.853638,343.975586 536.096741,343.051208 548.126465,340.033447 
	C548.929443,339.832001 549.761780,339.697693 550.587463,339.646912 
	C552.136475,339.551636 553.729431,339.597626 554.088501,341.565063 
	C554.376343,343.142273 553.338867,344.048737 552.033752,344.596893 
	C550.655762,345.175690 549.258118,345.761780 547.813354,346.119843 
	C526.320984,351.446289 504.743134,352.209045 483.074585,347.211548 
	C481.778442,346.912598 480.484467,346.571350 479.229523,346.134644 
	C477.464600,345.520477 475.406982,344.737061 476.092682,342.421356 
	C476.785309,340.082245 479.006104,340.573273 480.768951,341.022308 
	C490.538757,343.511078 500.489502,343.952545 510.998413,343.805176 
z"/>
<path fill="#000000" opacity="1.000000" stroke="none" 
	d="
M579.365601,253.315399 
	C577.096802,252.832489 575.502136,251.311661 572.866211,251.665451 
	C571.343018,258.182526 567.925659,263.174133 560.082153,262.084595 
	C554.222778,261.270691 551.957458,256.988922 551.376465,251.336060 
	C550.603027,251.483032 549.971008,251.524521 549.396301,251.727737 
	C547.919922,252.249680 546.392456,252.696136 545.423889,251.039215 
	C544.336731,249.179321 545.568848,247.842957 546.912048,246.813675 
	C551.278809,243.467590 556.345032,241.949432 561.761963,241.844589 
	C568.605408,241.712097 574.762207,244.113693 580.517944,247.631104 
	C581.806458,248.418518 583.065491,249.435577 582.946960,251.130936 
	C582.813049,253.046768 581.387634,253.465622 579.365601,253.315399 
z"/>
<path fill="#000000" opacity="1.000000" stroke="none" 
	d="
M477.342407,244.393250 
	C478.411804,244.968857 479.188934,245.300949 479.853363,245.787064 
	C481.544922,247.024673 484.196655,247.967026 483.472412,250.562637 
	C482.596039,253.703461 479.742462,251.294479 477.295502,252.059021 
	C476.256042,258.002563 473.344391,262.744446 466.036957,262.211670 
	C459.662354,261.746857 457.058105,257.361938 456.090088,251.805420 
	C453.968597,251.162842 452.659943,252.459320 451.177307,253.057312 
	C449.365082,253.788254 447.493805,254.336472 446.369537,252.240173 
	C445.121521,249.913193 446.837921,248.330597 448.520233,247.320816 
	C456.827728,242.334259 465.575073,239.948227 475.136841,243.509460 
	C475.759338,243.741318 476.378265,243.982864 477.342407,244.393250 
z"/>
</g>
</svg>